<svg viewBox="0 0 800 800" xmlns="http://www.w3.org/2000/svg">
  <defs>
    <linearGradient id="g52788382" x1="0" y1="0" x2="1" y2="1">
      <stop offset="0%" stop-color="#0e6b3a"/>
      <stop offset="100%" stop-color="#042314"/>
    </linearGradient>
    <radialGradient id="g52788382glow" cx="50%" cy="38%" r="60%">
      <stop offset="0%" stop-color="#ff5a36" stop-opacity="0.35"/>
      <stop offset="100%" stop-color="#ff5a36" stop-opacity="0"/>
    </radialGradient>
  </defs>
  <rect width="800" height="800" fill="url(#g52788382)"/>
  <circle cx="400.0" cy="336.0" r="336.0" fill="url(#g52788382glow)"/>
  <g stroke="#e3fff0" stroke-width="10" fill="none" stroke-linecap="round" stroke-linejoin="round" opacity="0.92">
    
    <path d="M270 340 h260 a70 70 0 0 1 70 90 l-10 90 a50 50 0 0 1 -90 25 l-30 -35 h-160 l-30 35 a50 50 0 0 1 -90 -25 l-10 -90 a70 70 0 0 1 70 -90 Z"/>
    <line x1="330" y1="400" x2="330" y2="440"/>
    <line x1="310" y1="420" x2="350" y2="420"/>
    <circle cx="480" cy="400" r="12"/>
    <circle cx="510" cy="430" r="12"/>
    
  </g>
</svg>